<?xml version="1.0" encoding="UTF-8" standalone="no"?>
<svg
   xmlns:dc="http://purl.org/dc/elements/1.1/"
   xmlns:cc="http://creativecommons.org/ns#"
   xmlns:rdf="http://www.w3.org/1999/02/22-rdf-syntax-ns#"
   xmlns:svg="http://www.w3.org/2000/svg"
   xmlns="http://www.w3.org/2000/svg"
   id="Flux_symbol_gradient"
   width="256"
   height="256"
   viewBox="0 0 256 256"
   version="1.1">
  <defs id="defs899">
    <linearGradient id="fluxGradient" x1="0%" y1="0%" x2="100%" y2="100%">
      <stop offset="0%" style="stop-color:#3b82f6;stop-opacity:1" />
      <stop offset="50%" style="stop-color:#a855f7;stop-opacity:1" />
      <stop offset="100%" style="stop-color:#ec4899;stop-opacity:1" />
    </linearGradient>
  </defs>
  <circle
     id="Ellipse_64"
     cx="128"
     cy="128"
     style="fill:url(#fluxGradient);stroke-width:0.75995773"
     r="128" />
  <g
     id="Group_179"
     transform="matrix(0.762672,0,0,0.762672,57.841041,47.080505)">
    <path
       id="Path_73"
       d="m 144.555,190.421 -19.224,11.107 -41.3,-23.841 18.756,-10.832 0.469,-0.276 0.717,0.413 z"
       transform="translate(-32.311,13.286)"
       style="fill:#ffffff" />
    <path
       id="Path_74"
       d="m 232.54,89.764 v 22.352 l -40.653,-23.469 -11.025,-6.367 -11.025,6.367 -51.677,29.836 -11.025,6.367 v 13.16 L 87.25,126.531 76.225,120.164 65.2,126.531 46.5,137.321 V 89.764 l 93.02,-53.7 z"
       transform="translate(-46.5,-36.06)"
       style="fill:#ffffff" />
    <path
       id="Path_75"
       d="m 209.856,117.919 v 59.671 l -51.678,29.835 -0.069,-0.041 L 106.5,177.59 V 117.919 L 158.178,88.07 Z"
       transform="translate(-23.815,-16.396)"
       style="fill:#ffffff" />
    <path
       id="Path_76"
       d="m 105.95,132.727 v 34.314 L 76.225,184.212 46.5,167.041 V 132.727 L 76.225,115.57 Z"
       transform="translate(-46.5,-5.999)"
       style="fill:#ffffff" />
  </g>
</svg>
